<?xml version="1.0" encoding="UTF-8" standalone="no"?>
<!DOCTYPE svg PUBLIC "-//W3C//DTD SVG 1.1//EN" "http://www.w3.org/Graphics/SVG/1.1/DTD/svg11.dtd">
<svg width="100%" height="100%" viewBox="0 0 2500 2500" version="1.1" xmlns="http://www.w3.org/2000/svg" xmlns:xlink="http://www.w3.org/1999/xlink" xml:space="preserve" xmlns:serif="http://www.serif.com/" style="fill-rule:evenodd;clip-rule:evenodd;stroke-linejoin:round;stroke-miterlimit:2;">
    <g transform="matrix(0.07643,0,0,0.07643,245.036166,1158.89396)">
        <g transform="matrix(1,0,0,1,-3000,-3000)">
            <g transform="matrix(2.666667,0,0,2.666667,0,0)">
                <path d="M278.614,1989.128L483.681,1989.128L1093.013,507.72L1702.775,1990.967L1951.831,1990.967L1227.467,239.847L1002.534,239.847L278.614,1989.128Z" style="fill:rgb(235,217,185);"/>
            </g>
            <g transform="matrix(2.666667,0,0,2.666667,0,0)">
                <path d="M820.767,1989.074L1041.819,1989.074L1322.786,1326.752L1096.605,1326.752L820.767,1989.074Z" style="fill:rgb(235,217,185);"/>
            </g>
        </g>
    </g>
    <path d="M640.536,1111.753L657.786,1086.177C644.195,1060.664 586.443,1047.008 546.257,1051.009C506.44,1054.907 479.348,1068.352 463.621,1090.324C446.623,1108.699 442.499,1131.297 450.735,1157.949C456.335,1176.843 467.054,1191.263 496.221,1203.423L573.093,1224.152C587.471,1228.479 601.536,1235.297 617.072,1245.8C629.811,1263.021 629.612,1278.68 616.553,1292.785C605.867,1304.688 593.418,1309.523 581.042,1314.797L526.134,1314.001C511.396,1307.782 498.798,1300.728 486.564,1293.531C480.699,1289.244 474.43,1284.411 467.567,1278.771L441.696,1308.258C446.552,1315.274 454.746,1326.779 461.452,1329.558C483.12,1343.643 497.282,1348.617 509.12,1350.77C535.943,1356.062 559.096,1355.588 581.005,1353.159C608.372,1350.92 625.293,1341.464 638.503,1329.445C652.342,1318.356 662.658,1302.079 669.594,1280.825C672.437,1264.946 671.46,1250 668.455,1235.548C658.079,1213.072 641.823,1200.874 622.327,1194.335L564.418,1178.865L518.249,1163.852L495.05,1139.713L496.937,1114.934L519.297,1095.414L548.415,1087.172L579.542,1086.902L610.445,1098.442L640.536,1111.753Z" style="fill:rgb(235,217,185);"/>
    <path d="M926.53,1118.997C906.448,1104.366 883.853,1096.119 857.602,1091.251C815.942,1099.322 787.032,1115.439 768.45,1139.2C752.443,1171.041 747.799,1202.744 756.381,1234.288C764.918,1258.666 775.335,1276.363 787.571,1287.597C813.325,1305.849 832.732,1312.438 849.746,1314.628C878.256,1315.948 903.557,1304.222 929.184,1283.816L957.851,1311.54C948.846,1325.652 936.083,1338.057 918.66,1343.074C894.546,1351.219 870.65,1354.009 846.947,1352.009C807.553,1352.748 780.094,1337.115 754.492,1318.934C718.359,1287.778 709.078,1264.168 709.804,1241.539C699.584,1204.433 704.718,1169.036 720.389,1136.989C735.807,1098.477 760.254,1075.515 789.279,1060.439C819.676,1050.588 847.576,1045.976 873.764,1051.056C915.365,1053.815 940.703,1069.443 955.333,1088.845L926.53,1118.997Z" style="fill:rgb(235,217,185);"/>
    <path d="M1033.879,1213.206L1257.605,1213.206C1260.587,1193.071 1263.311,1172.934 1258.642,1154.643C1256.081,1108.24 1221.392,1084.337 1185.791,1062.025C1157.632,1049.541 1127.286,1046.807 1094.746,1053.856C1069.824,1060.618 1048.938,1070.748 1032.879,1084.906C1020.382,1098.994 1006.733,1111.664 998.728,1129.81C986.173,1145.114 988.083,1178.097 988.51,1209.719C988.902,1234.004 991.48,1252.576 996.341,1265.18C1003.399,1284.87 1011.125,1301.888 1023.352,1309.531C1036.155,1324.31 1045.594,1334.819 1055.522,1335.725C1072.276,1348.985 1090.85,1350.353 1104.368,1349.815L1147.021,1351.092L1179.447,1348.499C1194.517,1344.586 1207.559,1339.321 1218.28,1332.512L1251.411,1305.447L1228.489,1282.442L1183.426,1304.417C1165.358,1314.489 1151.065,1318.853 1136.708,1317.628C1125.935,1320.746 1111.782,1317.091 1097.04,1311.462C1084.941,1307.238 1076.075,1300.747 1069.153,1292.893C1058.229,1282.48 1053.398,1275.271 1048.837,1268.204C1035.902,1240.228 1031.321,1222.386 1033.879,1213.206Z" style="fill:rgb(235,217,185);"/>
    <path d="M1369.371,1145.94C1390.595,1110.47 1417.672,1093.631 1449.159,1090.834C1472.756,1090.217 1493.273,1104.857 1512.164,1127.551L1517.812,1343.097L1566.536,1343.097L1561.878,1133.879C1560.867,1108.113 1552.928,1088.77 1537.985,1077.498C1524.718,1057.741 1496.21,1052.044 1462.899,1049.309C1434.819,1049.978 1412.837,1057.761 1395.61,1071.09L1361.917,1102.101L1361.917,1057.807L1318.264,1057.807L1318.264,1341.972L1364.881,1341.972L1369.371,1145.94Z" style="fill:rgb(235,217,185);"/>
    <path d="M1920.318,1343.038L1874.261,1343.038L1873.03,1293.887C1847.071,1326.518 1824.184,1344.423 1804.223,1348.308C1772.091,1356.333 1740.549,1355.168 1709.508,1346.159C1674.867,1339.235 1654,1311.809 1633.127,1284.392C1609.424,1236.52 1608.656,1209.3 1614.06,1184.122C1613.898,1150.406 1625.378,1128.366 1639.741,1113.479C1651.258,1094.533 1667.136,1080.278 1683.165,1066.371C1703.226,1056.318 1723.039,1050.876 1742.598,1050.118C1754.984,1047.558 1770.669,1047.95 1791.68,1053.108L1833.871,1070.544L1875.1,1107.927L1875.1,931.231L1921.614,931.231L1920.318,1343.038Z" style="fill:rgb(235,217,185);"/>
    <path d="M2137.526,1092.127L2136.91,1051.908C2119.379,1047.372 2101.355,1048.361 2082.758,1055.762C2058.451,1062.841 2041.88,1079.866 2028.867,1101.466L2028.867,1052.419L1984.817,1052.419L1984.817,1343.236L2029.113,1343.236C2029.005,1273.522 2025.638,1198.252 2035.305,1145.209C2059.288,1118.803 2074.046,1100.845 2083.665,1098.683L2137.526,1092.127Z" style="fill:rgb(235,217,185);"/>
    <path d="M2168.103,1055.278L2217.19,1055.278L2303.996,1291.506L2315.765,1291.506L2403.247,1054.564L2450.767,1054.564L2294.052,1451.517L2244.152,1451.517L2280.42,1348.913L2168.103,1055.278Z" style="fill:rgb(235,217,185);"/>
</svg>
